<svg width="20" height="20" viewBox="0 0 20 20" fill="none" xmlns="http://www.w3.org/2000/svg">
<path d="M14.8172 2.05781L17.3172 4.55781C17.3753 4.61586 17.4214 4.68479 17.4529 4.76066C17.4843 4.83654 17.5005 4.91786 17.5005 5C17.5005 5.08213 17.4843 5.16346 17.4529 5.23934C17.4214 5.31521 17.3753 5.38414 17.3172 5.44219L14.8172 7.94219C14.6999 8.05946 14.5409 8.12535 14.375 8.12535C14.2091 8.12535 14.0501 8.05946 13.9328 7.94219C13.8155 7.82491 13.7497 7.66585 13.7497 7.5C13.7497 7.33415 13.8155 7.17509 13.9328 7.05781L15.3664 5.625H10.8836L6.50859 10L10.8836 14.375H15.3664L13.9328 12.9422C13.8155 12.8249 13.7497 12.6659 13.7497 12.5C13.7497 12.3341 13.8155 12.1751 13.9328 12.0578C14.0501 11.9405 14.2091 11.8747 14.375 11.8747C14.5409 11.8747 14.6999 11.9405 14.8172 12.0578L17.3172 14.5578C17.3753 14.6159 17.4214 14.6848 17.4529 14.7607C17.4843 14.8365 17.5005 14.9179 17.5005 15C17.5005 15.0821 17.4843 15.1635 17.4529 15.2393C17.4214 15.3152 17.3753 15.3841 17.3172 15.4422L14.8172 17.9422C14.7591 18.0003 14.6902 18.0463 14.6143 18.0777C14.5384 18.1092 14.4571 18.1253 14.375 18.1253C14.2929 18.1253 14.2116 18.1092 14.1357 18.0777C14.0598 18.0463 13.9909 18.0003 13.9328 17.9422C13.8155 17.8249 13.7497 17.6659 13.7497 17.5C13.7497 17.4179 13.7658 17.3366 13.7973 17.2607C13.8287 17.1848 13.8747 17.1159 13.9328 17.0578L15.3664 15.625H10.625C10.5429 15.6251 10.4616 15.609 10.3857 15.5776C10.3098 15.5462 10.2409 15.5002 10.1828 15.4422L5.36641 10.625H1.875C1.70924 10.625 1.55027 10.5592 1.43306 10.4419C1.31585 10.3247 1.25 10.1658 1.25 10C1.25 9.83424 1.31585 9.67527 1.43306 9.55806C1.55027 9.44085 1.70924 9.375 1.875 9.375H5.36641L10.1828 4.55781C10.2409 4.49979 10.3098 4.45378 10.3857 4.42241C10.4616 4.39105 10.5429 4.37493 10.625 4.375H15.3664L13.9328 2.94219C13.8155 2.82491 13.7497 2.66585 13.7497 2.5C13.7497 2.33415 13.8155 2.17509 13.9328 2.05781C14.0501 1.94054 14.2091 1.87465 14.375 1.87465C14.5409 1.87465 14.6999 1.94054 14.8172 2.05781Z" fill="#7A8097"/>
</svg>
