<svg width="20" height="20" viewBox="0 0 20 20" fill="none" xmlns="http://www.w3.org/2000/svg">
<path d="M14.1922 13.3078C14.2503 13.3659 14.2964 13.4348 14.3278 13.5107C14.3593 13.5865 14.3755 13.6679 14.3755 13.75C14.3755 13.8321 14.3593 13.9135 14.3278 13.9893C14.2964 14.0652 14.2503 14.1341 14.1922 14.1922L10.4422 17.9422C10.3841 18.0003 10.3152 18.0464 10.2393 18.0779C10.1635 18.1093 10.0821 18.1255 10 18.1255C9.91786 18.1255 9.83653 18.1093 9.76066 18.0779C9.68479 18.0464 9.61585 18.0003 9.55781 17.9422L5.80781 14.1922C5.69053 14.0749 5.62465 13.9159 5.62465 13.75C5.62465 13.5841 5.69053 13.4251 5.80781 13.3078C5.92508 13.1905 6.08414 13.1247 6.25 13.1247C6.41585 13.1247 6.57491 13.1905 6.69218 13.3078L10 16.6164L13.3078 13.3078C13.3659 13.2497 13.4348 13.2036 13.5107 13.1721C13.5865 13.1407 13.6679 13.1245 13.75 13.1245C13.8321 13.1245 13.9135 13.1407 13.9893 13.1721C14.0652 13.2036 14.1341 13.2497 14.1922 13.3078ZM6.69218 6.69219L10 3.38359L13.3078 6.69219C13.4251 6.80946 13.5841 6.87535 13.75 6.87535C13.9158 6.87535 14.0749 6.80946 14.1922 6.69219C14.3095 6.57491 14.3753 6.41585 14.3753 6.25C14.3753 6.08415 14.3095 5.92509 14.1922 5.80781L10.4422 2.05781C10.3841 1.9997 10.3152 1.9536 10.2393 1.92215C10.1635 1.8907 10.0821 1.87451 10 1.87451C9.91786 1.87451 9.83653 1.8907 9.76066 1.92215C9.68479 1.9536 9.61585 1.9997 9.55781 2.05781L5.80781 5.80781C5.69053 5.92509 5.62465 6.08415 5.62465 6.25C5.62465 6.41585 5.69053 6.57491 5.80781 6.69219C5.92508 6.80946 6.08414 6.87535 6.25 6.87535C6.41585 6.87535 6.57491 6.80946 6.69218 6.69219Z" fill="#7A8097"/>
</svg>
